<?xml version="1.0" encoding="UTF-8" standalone="no"?>
<svg width="30px" height="30px" viewBox="0 0 30 30" version="1.1" xmlns="http://www.w3.org/2000/svg" xmlns:xlink="http://www.w3.org/1999/xlink" xmlns:sketch="http://www.bohemiancoding.com/sketch/ns">
    <!-- Generator: Sketch 3.0.4 (8053) - http://www.bohemiancoding.com/sketch -->
    <title></title>
    <desc>Created with Sketch.</desc>
    <defs></defs>
    <g id="Page-1" stroke="none" stroke-width="1" fill="none" fill-rule="evenodd" sketch:type="MSPage">
        <g id="twitter-red-box" sketch:type="MSArtboardGroup">
            <rect id="Rectangle-2" fill="#EC3731" sketch:type="MSShapeGroup" x="0" y="0" width="30" height="30" rx="3"></rect>
            <path d="M23.1934694,10.534325 C22.6387755,10.79595 22.042449,10.972425 21.4164286,11.051725 C22.0553061,10.645475 22.5457143,10.001975 22.7765306,9.234325 C22.1786735,9.610675 21.5168367,9.884325 20.8118367,10.03155 C20.2476531,9.39325 19.4434694,8.994475 18.5535714,8.994475 C16.845102,8.994475 15.459898,10.4651 15.459898,12.278925 C15.459898,12.536325 15.4871429,12.7869 15.540102,13.0274 C12.9689796,12.890575 10.6886735,11.5831 9.16265306,9.5954 C8.89663265,10.0803 8.74387755,10.644825 8.74387755,11.246725 C8.74387755,12.3865 9.29,13.391725 10.1202041,13.98095 C9.61326531,13.9634 9.13602041,13.81585 8.71908163,13.569825 C8.71877551,13.583475 8.71877551,13.597125 8.71877551,13.611425 C8.71877551,15.202625 9.785,16.529925 11.2008163,16.832175 C10.9409184,16.906925 10.667551,16.947225 10.3853061,16.947225 C10.1860204,16.947225 9.9922449,16.92675 9.80336735,16.888075 C10.1970408,18.19295 11.3397959,19.142925 12.6931633,19.16925 C11.6342857,20.050325 10.3005102,20.575525 8.85071429,20.575525 C8.60122449,20.575525 8.35479592,20.5596 8.11265306,20.529375 C9.4822449,21.461475 11.1083673,22.0052 12.8557143,22.0052 C18.5465306,22.0052 21.6585714,17.0002 21.6585714,12.659175 C21.6585714,12.516825 21.6555102,12.375125 21.6496939,12.234075 C22.2539796,11.7716 22.7789796,11.1931 23.1934694,10.534325 L23.1934694,10.534325 Z" id="Shape" fill="#FFFFFF" sketch:type="MSShapeGroup"></path>
        </g>
    </g>
</svg>