<svg width="30" height="30" viewBox="0 0 30 30" xmlns="http://www.w3.org/2000/svg"><title/><desc>Created with Sketch.</desc><g fill="none"><rect fill="#EC3731" width="30" height="30" rx="3"/><path d="M23.193 10.534c-.554.262-1.15.438-1.777.518.64-.407 1.13-1.05 1.36-1.818-.597.377-1.26.65-1.964.798-.564-.64-1.37-1.038-2.258-1.038-1.71 0-3.094 1.47-3.094 3.285 0 .256.027.507.08.747-2.57-.136-4.85-1.444-6.377-3.432-.266.485-.42 1.05-.42 1.652 0 1.14.547 2.145 1.377 2.734-.507-.017-.984-.164-1.4-.41v.04c0 1.593 1.065 2.92 2.48 3.222-.26.075-.532.115-.815.115-.2 0-.393-.02-.582-.06.394 1.306 1.537 2.256 2.89 2.282-1.06.88-2.392 1.406-3.842 1.406-.25 0-.495-.016-.737-.047 1.37.93 2.995 1.475 4.743 1.475 5.69 0 8.803-5.005 8.803-9.346 0-.143-.004-.285-.01-.426.604-.462 1.13-1.04 1.543-1.7z" fill="#fff"/></g></svg>